<?xml version="1.0" encoding="UTF-8" standalone="no"?>
<svg width="141px" height="38px" viewBox="0 0 141 38" version="1.1" xmlns="http://www.w3.org/2000/svg" xmlns:xlink="http://www.w3.org/1999/xlink" xmlns:sketch="http://www.bohemiancoding.com/sketch/ns">
    <!-- Generator: Sketch 3.3.2 (12043) - http://www.bohemiancoding.com/sketch -->
    <title>Bird + Zammad</title>
    <desc>Created with Sketch.</desc>
    <defs></defs>
    <g id="Page-1" stroke="none" stroke-width="1" fill="none" fill-rule="evenodd" sketch:type="MSPage">
        <g id="Bird-+-Zammad" sketch:type="MSLayerGroup">
            <g id="Bird" sketch:type="MSShapeGroup">
                <g id="g12" transform="translate(13.561627, 26.982663) scale(1, -1) translate(-13.561627, -26.982663) translate(1.079030, 23.681093)" fill="#D9B42F">
                    <path d="M17.9237288,6.60313901 L0.010028753,0.0592152466 L24.8668266,2.98248879 L17.9237288,6.60313901 L17.9237288,6.60313901 Z" id="path14"></path>
                </g>
                <g id="g16" transform="translate(13.348249, 25.385129) scale(1, -1) translate(-13.348249, -25.385129) translate(5.133207, 21.551048)" fill="#FFE188">
                    <path d="M13.8695521,5.53811659 L16.2339906,0.0178923767 L0.148510896,7.64643498 L13.8695521,5.53811659 L13.8695521,5.53811659 Z" id="path18"></path>
                </g>
                <g id="g20" transform="translate(41.635755, 12.534930) scale(1, -1) translate(-41.635755, -12.534930) translate(39.715356, 10.617890)" fill="#E83F00">
                    <path d="M3.84079903,3.83408072 L1.86641495,3.04596413 L0.0431023002,0.188508969 L3.84079903,3.83408072 L3.84079903,3.83408072 Z" id="path22"></path>
                </g>
                <g id="g24" transform="translate(34.849405, 13.128531) scale(1, -1) translate(-34.849405, -13.128531) translate(29.941717, 11.424496)" fill="#CD2015">
                    <path d="M9.8153753,3.40807175 L0.11714437,0.934237668 L4.34693099,0.0543161435 L9.8153753,3.40807175 L9.8153753,3.40807175 Z" id="path26"></path>
                </g>
                <g id="g28" transform="translate(35.489538, 12.276513) scale(1, -1) translate(-35.489538, -12.276513) translate(31.221983, 11.424496)" fill="#E83F00">
                    <path d="M8.53510896,1.70403587 L0.0155765738,1.26418161 L2.58357748,0.188721973 L8.53510896,1.70403587 L8.53510896,1.70403587 Z" id="path30"></path>
                </g>
                <g id="g32" transform="translate(29.569394, 17.892717) scale(1, -1) translate(-29.569394, -17.892717) translate(18.793819, 10.970072)" fill="#EA4F86">
                    <path d="M16.0033293,1.06502242 L19.4118251,7.56847534 L21.4250439,13.6667937 L0.208896792,1.13424888 L7.05234715,0.19426009 L16.0033293,1.06502242 L16.0033293,1.06502242 Z" id="path34"></path>
                </g>
                <g id="g36" transform="translate(21.974363, 14.942776) scale(1, -1) translate(-21.974363, -14.942776) translate(18.987075, 5.996587)" fill="#00A2C9">
                    <path d="M5.97457627,17.8923767 L0.0157899516,0.207892377 L3.62294038,2.33665919 L5.97457627,17.8923767 L5.97457627,17.8923767 Z" id="path38"></path>
                </g>
                <g id="g40" transform="translate(20.480719, 5.464076) scale(1, -1) translate(-20.480719, -5.464076) translate(15.573032, 0.032462)" fill="#00A2C9">
                    <path d="M9.38861985,4.89910314 L0.172622579,10.8138117 L9.61437349,0.143991031 L9.38861985,4.89910314 L9.38861985,4.89910314 Z" id="path42"></path>
                </g>
                <g id="g44" transform="translate(19.548984, 8.833019) scale(1, -1) translate(-19.548984, -8.833019) translate(13.787786, 5.105441)" fill="#5A8794">
                    <path d="M11.3090194,3.83408072 L0.200148305,7.26068386 L11.4451544,0.0208744395 L11.3090194,3.83408072 L11.3090194,3.83408072 Z" id="path46"></path>
                </g>
                <g id="g48" transform="translate(19.975740, 11.389073) scale(1, -1) translate(-19.975740, -11.389073) translate(14.641297, 8.726517)" fill="#005971">
                    <path d="M10.4555085,5.32511211 L0.0369143462,0.185526906 L10.5916435,1.51190583 L10.4555085,5.32511211 L10.4555085,5.32511211 Z" id="path50"></path>
                </g>
                <g id="g52" transform="translate(40.779470, 13.273502) scale(1, -1) translate(-40.779470, -13.273502) translate(38.218938, 9.332919)" fill="#CD2015">
                    <path d="M0,0 L5.00050696,7.81747758 L1.99998941,6.0655157 L0,0 L0,0 Z" id="path54"></path>
                </g>
                <g id="g56" transform="translate(24.013657, 13.825312) scale(1, -1) translate(-24.013657, -13.825312) translate(22.413324, 5.944146)" fill="#5EB2D1">
                    <path d="M3.20066586,1.91704036 L2.54837016,15.7099327 L0.196734262,0.154215247 L3.20066586,1.91704036 L3.20066586,1.91704036 Z" id="path58"></path>
                </g>
                <g id="g60" transform="translate(33.377397, 19.325343) scale(1, -1) translate(-33.377397, -19.325343) translate(30.710176, 14.745747)" fill="#F59B00">
                    <path d="M3.41404358,9.15919283 L5.20833686,2.2848991 L4.08703692,0.154641256 L0.16408747,7.23810538 L3.41404358,9.15919283 L3.41404358,9.15919283 Z" id="path62"></path>
                </g>
                <g id="g64" transform="translate(28.075750, 26.519399) scale(1, -1) translate(-28.075750, -26.519399) translate(21.354352, 23.750341)" fill="#E83F00">
                    <path d="M13.4427966,5.53811659 L4.49181447,4.66735426 L0.0128026634,0.0871188341 L13.4427966,5.53811659 L13.4427966,5.53811659 Z" id="path66"></path>
                </g>
                <g id="g68" transform="translate(29.782772, 15.336664) scale(1, -1) translate(-29.782772, -15.336664) translate(24.768395, 5.857964)" fill="#BAE2F5">
                    <path d="M10.028753,1.06502242 L0.193320218,18.8187332 L1.07777088,0.19426009 L10.028753,1.06502242 L10.028753,1.06502242 Z" id="path70"></path>
                </g>
                <g id="g72" transform="translate(21.239747, 23.943025) scale(1, -1) translate(-21.239747, -23.943025) translate(16.438748, 19.789437)" fill="#F59B00">
                    <path d="M9.17524213,8.30717489 L9.40761047,3.47538117 L0.0650802058,0.186165919 L2.56394673,4.41558296 L9.17524213,8.30717489 L9.17524213,8.30717489 Z" id="path74"></path>
                </g>
                <g id="g76" transform="translate(13.028182, 30.816743) scale(1, -1) translate(-13.028182, -30.816743) translate(0.012141, 23.681093)" fill="#FFD130">
                    <path d="M18.9906174,14.2713004 L25.8340678,13.3310987 L21.355056,8.75107623 L0.0300862591,0.128654709 L18.9906174,14.2713004 L18.9906174,14.2713004 Z" id="path78"></path>
                </g>
            </g>
            <path d="M50.1860993,13.6492635 L58.3529183,25.40775 C58.6670103,25.8556984 59.003507,26.169241 59.003507,26.169241 L59.003507,26.214185 C59.003507,26.214185 58.5547736,26.1468756 58.1060403,26.1468756 L52.250102,26.1468756 L52.250102,23.6832657 L50.2981226,23.6832657 L50.2981226,27.9834002 L61.7183117,27.9834002 L61.7183117,26.5275146 L53.5514927,14.7466626 C53.2374007,14.2989271 52.9009041,13.9851715 52.9009041,13.9851715 L52.9009041,13.9404406 C52.9009041,13.9404406 53.3496374,14.00775 53.7983708,14.00775 L59.9908057,14.00775 L59.9908057,16.5610348 L61.9427851,16.5610348 L61.9427851,12.1712253 L50.1860993,12.1712253 L50.1860993,13.6492635 Z M67.2377747,13.5820605 C69.1673494,13.5820605 70.3565035,15.552991 70.3565035,17.2553229 L70.3565035,17.7256368 L69.7955334,17.7256368 C68.7634254,17.7256368 65.1961766,17.6806928 65.1961766,15.5082601 C65.1961766,14.5005359 65.9363839,13.5820605 67.2377747,13.5820605 Z M96.0688713,13.8508296 L94.3636312,13.8508296 L94.3636312,19.427926 C94.3636312,22.3171188 93.1744771,23.7727915 90.6615277,23.7727915 C88.7993803,23.7727915 87.2289202,22.5186211 86.5557135,21.1074664 C86.1741942,22.943991 85.0524675,23.7727915 83.2351294,23.7727915 C81.3953867,23.7727915 79.7574992,22.3618498 79.1517199,21.0180045 C79.1517199,21.0180045 79.2189339,21.3091816 79.2189339,21.6674552 L79.2189339,22.2498094 C79.2189339,23.0783969 78.7477959,23.5039798 77.7831152,23.5039798 L75.2255698,23.5039798 L75.2255698,21.8242265 L76.6163658,21.8242265 C76.9306712,21.8242265 77.1101218,21.6674552 77.1101218,21.3539126 L77.1101218,13.8508296 L75.3375931,13.8508296 L75.3375931,12.1710762 L81.0812946,12.1710762 L81.0812946,13.8508296 L79.2863612,13.8508296 L79.2863612,17.3000112 C79.2863612,19.5173879 80.5429426,21.801861 82.696564,21.801861 C84.4466881,21.801861 84.6709481,20.4356502 84.6709481,18.9576121 L84.6709481,12.1710762 L88.6199296,12.1710762 L88.6199296,13.8508296 L86.8471875,13.8508296 L86.8471875,17.3896861 C86.8471875,19.6294283 88.0589596,21.801861 90.1903897,21.801861 C91.8957044,21.801861 92.1871784,20.5474776 92.1871784,18.9576121 L92.1871784,12.1710762 L96.0688713,12.1710762 L101.723093,12.1710762 L101.723093,13.8508296 L99.9281595,13.8508296 L99.9281595,17.3000112 C99.9281595,19.5173879 101.184741,21.801861 103.338576,21.801861 C105.088486,21.801861 105.31296,20.4356502 105.31296,18.9576121 L105.31296,12.1710762 L109.261728,12.1710762 L109.261728,13.8508296 L107.489199,13.8508296 L107.489199,17.3896861 C107.489199,19.6294283 108.700758,21.801861 110.832188,21.801861 C112.537503,21.801861 112.82919,20.5474776 112.82919,18.9576121 L112.82919,12.1710762 L116.800363,12.1710762 L116.800363,13.8508296 L115.005429,13.8508296 L115.005429,19.427926 C115.005429,22.3171188 113.816275,23.7727915 111.303326,23.7727915 C109.441179,23.7727915 107.870719,22.5186211 107.242535,21.1074664 L107.197512,21.1074664 C106.816206,22.943991 105.694266,23.7727915 103.877141,23.7727915 C102.037398,23.7727915 100.399511,22.3618498 99.8385409,21.0180045 L99.7935182,21.0180045 C99.7935182,21.0180045 99.8607321,21.3091816 99.8607321,21.6674552 L99.8607321,22.2498094 C99.8607321,23.0783969 99.3895941,23.5039798 98.4249134,23.5039798 L95.867368,23.5039798 L95.867368,21.8242265 L97.2583774,21.8242265 C97.5724694,21.8242265 97.7519201,21.6674552 97.7519201,21.3539126 L97.7519201,13.8508296 L96.0688713,13.8508296 L96.0688713,13.8508296 Z M69.6160828,19.1365785 L70.3340988,19.1365785 L70.3340988,19.5621614 C70.3340988,21.3539552 69.3019908,21.9810404 67.9109814,21.9810404 C66.116048,21.9810404 64.6576112,20.8836413 64.6576112,20.8836413 L63.7825492,22.4289888 C63.7825492,22.4289888 65.4428413,23.7728341 68.0904321,23.7728341 C70.9846875,23.7728341 72.5103382,22.2722175 72.5103382,19.4053901 L72.5103382,14.3435516 C72.5103382,14.0076435 72.6900023,13.8508722 73.0038809,13.8508722 L74.1482256,13.8508722 L74.1482256,12.1711188 L71.8821542,12.1711188 C70.8724508,12.1711188 70.4687402,12.6637982 70.4687402,13.4029238 L70.4687402,13.5599081 C70.4687402,14.0076435 70.5583588,14.2988206 70.5583588,14.2988206 L70.5135495,14.2988206 C70.5135495,14.2988206 69.5262508,11.9023072 66.7666367,11.9023072 C64.8818712,11.9023072 62.9973192,12.9999193 62.9973192,15.3291233 C62.9973192,18.8903453 67.7313173,19.1365785 69.6160828,19.1365785 L69.6160828,19.1365785 Z M121.871647,13.5820605 C123.801222,13.5820605 124.990376,15.552991 124.990376,17.2553229 L124.990376,17.7256368 L124.429406,17.7256368 C123.397298,17.7256368 119.830049,17.6806928 119.830049,15.5082601 C119.830049,14.5005359 120.570257,13.5820605 121.871647,13.5820605 Z M124.249955,19.1365785 L124.967971,19.1365785 L124.967971,19.5621614 C124.967971,21.3539552 123.935863,21.9810404 122.544641,21.9810404 C120.749921,21.9810404 119.291484,20.8836413 119.291484,20.8836413 L118.416635,22.4289888 C118.416635,22.4289888 120.076714,23.7728341 122.724305,23.7728341 C125.61856,23.7728341 127.144211,22.2722175 127.144211,19.4053901 L127.144211,14.3435516 C127.144211,14.0076435 127.323661,13.8508722 127.637753,13.8508722 L128.782098,13.8508722 L128.782098,12.1711188 L126.516027,12.1711188 C125.506323,12.1711188 125.102613,12.6637982 125.102613,13.4029238 L125.102613,13.5599081 C125.102613,14.0076435 125.192445,14.2988206 125.192445,14.2988206 L125.147422,14.2988206 C125.147422,14.2988206 124.160337,11.9023072 121.400509,11.9023072 C119.515957,11.9023072 117.631192,12.9999193 117.631192,15.3291233 C117.631192,18.8903453 122.36519,19.1365785 124.249955,19.1365785 Z M133.920191,13.7836267 C135.602888,13.7836267 137.195966,14.9932791 137.195966,17.8151626 C137.195966,19.8981334 136.14124,21.8690639 133.987405,21.8690639 C132.170067,21.8690639 130.711844,20.4131783 130.711844,17.837528 C130.711844,15.3739182 132.035426,13.7836267 133.920191,13.7836267 Z M133.650908,23.772685 C136.231072,23.772685 137.151157,21.8690639 137.151157,21.8690639 L137.195966,21.8690639 C137.195966,21.8690639 137.128539,22.2273374 137.128539,22.7202298 L137.128539,26.3036043 L135.243773,26.3036043 L135.243773,27.9835706 L139.304778,27.9835706 L139.304778,14.3436155 C139.304778,14.0077074 139.484229,13.8507231 139.798534,13.8507231 L140.942665,13.8507231 L140.942665,12.1711827 L138.676594,12.1711827 C137.667104,12.1711827 137.26318,12.6638621 137.26318,13.4029877 L137.26318,13.559759 C137.26318,13.940398 137.330394,14.1644787 137.330394,14.1644787 L137.285585,14.1644787 C137.285585,14.1644787 136.365713,11.9023711 133.449053,11.9023711 C130.397538,11.9023711 128.490582,14.32125 128.490582,17.837528 C128.490582,21.4434809 130.599394,23.772685 133.650908,23.772685" id="Zammad" fill="#FFFFFF" sketch:type="MSShapeGroup" transform="translate(95.564382, 19.942939) scale(1, -1) translate(-95.564382, -19.942939) "></path>
        </g>
    </g>
</svg>
